<svg width="1336" height="933" viewBox="0 0 1336 933" fill="none" xmlns="http://www.w3.org/2000/svg">
<g filter="url(#filter0_d_2_232)">
<path d="M344.042 758.044C334.697 758.044 326.954 750.436 326.954 740.961C326.954 731.485 334.563 723.878 344.042 723.878C353.521 723.878 361.131 731.485 361.131 740.961C361.131 750.436 353.521 758.044 344.042 758.044ZM344.042 725.213C335.365 725.213 328.289 732.286 328.289 740.961C328.289 749.636 335.365 756.709 344.042 756.709C352.72 756.709 359.796 749.636 359.796 740.961C359.796 732.286 352.72 725.213 344.042 725.213Z" fill="white" fill-opacity="0.5" shape-rendering="crispEdges"/>
<path d="M305.325 758.044C295.98 758.044 288.237 750.436 288.237 740.961C288.237 731.485 295.846 723.878 305.325 723.878C314.804 723.878 322.414 731.485 322.414 740.961C322.414 750.436 314.671 758.044 305.325 758.044ZM305.325 725.213C296.647 725.213 289.572 732.286 289.572 740.961C289.572 749.636 296.647 756.709 305.325 756.709C314.003 756.709 321.079 749.636 321.079 740.961C320.946 732.286 314.003 725.213 305.325 725.213Z" fill="white" fill-opacity="0.5" shape-rendering="crispEdges"/>
<path d="M266.742 758.044C257.396 758.044 249.653 750.436 249.653 740.961C249.653 731.485 257.263 723.878 266.742 723.878C276.221 723.878 283.831 731.485 283.831 740.961C283.831 750.436 276.087 758.044 266.742 758.044ZM266.742 725.213C258.064 725.213 250.988 732.286 250.988 740.961C250.988 749.636 258.064 756.709 266.742 756.709C275.42 756.709 282.496 749.636 282.496 740.961C282.496 732.286 275.42 725.213 266.742 725.213Z" fill="white" fill-opacity="0.5" shape-rendering="crispEdges"/>
<path d="M227.891 758.044C218.546 758.044 210.802 750.436 210.802 740.961C210.802 731.485 218.412 723.878 227.891 723.878C237.37 723.878 244.98 731.485 244.98 740.961C244.98 750.436 237.37 758.044 227.891 758.044ZM227.891 725.213C219.213 725.213 212.137 732.286 212.137 740.961C212.137 749.636 219.213 756.709 227.891 756.709C236.569 756.709 243.645 749.636 243.645 740.961C243.645 732.286 236.569 725.213 227.891 725.213Z" fill="white" fill-opacity="0.5" shape-rendering="crispEdges"/>
<path d="M187.038 758.044C177.693 758.044 169.949 750.436 169.949 740.961C169.949 731.485 177.559 723.878 187.038 723.878C196.517 723.878 204.127 731.485 204.127 740.961C204.127 750.436 196.517 758.044 187.038 758.044ZM187.038 725.213C178.36 725.213 171.284 732.286 171.284 740.961C171.284 749.636 178.36 756.709 187.038 756.709C195.716 756.709 202.792 749.636 202.792 740.961C202.792 732.286 195.716 725.213 187.038 725.213Z" fill="white" fill-opacity="0.5" shape-rendering="crispEdges"/>
<path d="M344.71 757.376H343.375V831.179H344.71V757.376Z" fill="white" fill-opacity="0.5" shape-rendering="crispEdges"/>
<path d="M305.993 757.376H304.658V831.179H305.993V757.376Z" fill="white" fill-opacity="0.5" shape-rendering="crispEdges"/>
<path d="M267.409 757.376H266.074V827.842H267.409V757.376Z" fill="white" fill-opacity="0.5" shape-rendering="crispEdges"/>
<path d="M228.559 757.376H227.224V831.179H228.559V757.376Z" fill="white" fill-opacity="0.5" shape-rendering="crispEdges"/>
<path d="M187.706 757.376H186.371V827.842H187.706V757.376Z" fill="white" fill-opacity="0.5" shape-rendering="crispEdges"/>
<path d="M461.262 208.062C451.916 208.062 444.173 200.454 444.173 190.979C444.173 181.503 451.783 173.896 461.262 173.896C470.741 173.896 478.351 181.503 478.351 190.979C478.351 200.454 470.607 208.062 461.262 208.062ZM461.262 175.231C452.584 175.231 445.508 182.304 445.508 190.979C445.508 199.654 452.584 206.727 461.262 206.727C469.94 206.727 477.016 199.654 477.016 190.979C477.016 182.304 469.94 175.231 461.262 175.231Z" fill="white" fill-opacity="0.5" shape-rendering="crispEdges"/>
<path d="M499.979 208.062C490.633 208.062 482.89 200.454 482.89 190.979C482.89 181.503 490.5 173.896 499.979 173.896C509.458 173.896 517.068 181.503 517.068 190.979C517.068 200.454 509.458 208.062 499.979 208.062ZM499.979 175.231C491.301 175.231 484.225 182.304 484.225 190.979C484.225 199.654 491.301 206.727 499.979 206.727C508.657 206.727 515.733 199.654 515.733 190.979C515.733 182.304 508.657 175.231 499.979 175.231Z" fill="white" fill-opacity="0.5" shape-rendering="crispEdges"/>
<path d="M538.562 208.062C529.217 208.062 521.473 200.454 521.473 190.979C521.473 181.503 529.083 173.896 538.562 173.896C548.041 173.896 555.651 181.503 555.651 190.979C555.651 200.454 548.041 208.062 538.562 208.062ZM538.562 175.231C529.884 175.231 522.808 182.304 522.808 190.979C522.808 199.654 529.884 206.727 538.562 206.727C547.24 206.727 554.316 199.654 554.316 190.979C554.316 182.304 547.24 175.231 538.562 175.231Z" fill="white" fill-opacity="0.5" shape-rendering="crispEdges"/>
<path d="M577.413 208.062C568.067 208.062 560.324 200.454 560.324 190.979C560.324 181.503 567.934 173.896 577.413 173.896C586.892 173.896 594.502 181.503 594.502 190.979C594.502 200.454 586.758 208.062 577.413 208.062ZM577.413 175.231C568.735 175.231 561.659 182.304 561.659 190.979C561.659 199.654 568.735 206.727 577.413 206.727C586.091 206.727 593.167 199.654 593.167 190.979C593.167 182.304 586.091 175.231 577.413 175.231Z" fill="white" fill-opacity="0.5" shape-rendering="crispEdges"/>
<path d="M618.266 208.062C608.92 208.062 601.177 200.454 601.177 190.979C601.177 181.503 608.787 173.896 618.266 173.896C627.745 173.896 635.355 181.503 635.355 190.979C635.355 200.454 627.612 208.062 618.266 208.062ZM618.266 175.231C609.588 175.231 602.512 182.304 602.512 190.979C602.512 199.654 609.588 206.727 618.266 206.727C626.944 206.727 634.02 199.654 634.02 190.979C634.02 182.304 626.944 175.231 618.266 175.231Z" fill="white" fill-opacity="0.5" shape-rendering="crispEdges"/>
<path d="M461.929 100.761H460.594V174.564H461.929V100.761Z" fill="white" fill-opacity="0.5" shape-rendering="crispEdges"/>
<path d="M500.646 100.761H499.311V174.564H500.646V100.761Z" fill="white" fill-opacity="0.5" shape-rendering="crispEdges"/>
<path d="M539.23 104.098H537.895V174.564H539.23V104.098Z" fill="white" fill-opacity="0.5" shape-rendering="crispEdges"/>
<path d="M578.08 100.761H576.745V174.564H578.08V100.761Z" fill="white" fill-opacity="0.5" shape-rendering="crispEdges"/>
<path d="M618.934 104.098H617.598V174.564H618.934V104.098Z" fill="white" fill-opacity="0.5" shape-rendering="crispEdges"/>
<path d="M385.029 698.254H105.465V634.061H385.029V698.254ZM106.8 696.92H383.694V635.395H106.8V696.92Z" fill="white" fill-opacity="0.5" shape-rendering="crispEdges"/>
<path d="M337.901 602.298H128.429C122.287 602.298 117.481 597.36 117.481 591.354V523.157C117.481 517.018 122.421 512.213 128.429 512.213H337.901C344.042 512.213 348.849 517.151 348.849 523.157V591.354C348.849 597.36 343.909 602.298 337.901 602.298Z" fill="white" fill-opacity="0.5" shape-rendering="crispEdges"/>
<path d="M342.04 619.514H126.826C114.277 619.514 104.13 609.371 104.13 596.826V520.488C104.13 507.943 114.277 497.8 126.826 497.8H342.04C354.59 497.8 364.736 507.943 364.736 520.488V596.959C364.603 609.371 354.456 619.514 342.04 619.514ZM126.826 499.134C115.078 499.134 105.465 508.743 105.465 520.488V596.959C105.465 608.704 115.078 618.313 126.826 618.313H342.04C353.788 618.313 363.401 608.704 363.401 596.959V520.488C363.401 508.743 353.788 499.134 342.04 499.134H126.826Z" fill="white" fill-opacity="0.5" shape-rendering="crispEdges"/>
<path d="M182.899 208.595H164.075V161.218H182.899V208.595ZM165.41 207.261H181.564V162.552H165.41V207.261Z" fill="white" fill-opacity="0.5" shape-rendering="crispEdges"/>
<path d="M211.603 208.595H192.779V161.218H211.603V208.595ZM194.114 207.261H210.268V162.552H194.114V207.261Z" fill="white" fill-opacity="0.5" shape-rendering="crispEdges"/>
<path d="M240.307 208.595H221.483V161.218H240.307V208.595ZM222.818 207.261H238.972V162.552H222.818V207.261Z" fill="white" fill-opacity="0.5" shape-rendering="crispEdges"/>
<path d="M269.012 208.595H250.187V161.218H269.012V208.595ZM251.522 207.261H267.676V162.552H251.522V207.261Z" fill="white" fill-opacity="0.5" shape-rendering="crispEdges"/>
<path d="M297.716 208.595H278.891V161.218H297.716V208.595ZM280.226 207.261H296.38V162.552H280.226V207.261Z" fill="white" fill-opacity="0.5" shape-rendering="crispEdges"/>
<path d="M326.42 208.595H307.595V161.218H326.42V208.595ZM309.064 207.261H325.218V162.552H309.064V207.261Z" fill="white" fill-opacity="0.5" shape-rendering="crispEdges"/>
<path d="M608.253 290.405H589.428V243.028H608.253V290.405ZM590.897 289.071H607.051V244.362H590.897V289.071Z" fill="white" fill-opacity="0.5" shape-rendering="crispEdges"/>
<path d="M637.091 290.405H618.266V243.028H637.091V290.405ZM619.601 289.071H635.755V244.362H619.601V289.071Z" fill="white" fill-opacity="0.5" shape-rendering="crispEdges"/>
<path d="M665.794 290.405H646.97V243.028H665.794V290.405ZM648.305 289.071H664.459V244.362H648.305V289.071Z" fill="white" fill-opacity="0.5" shape-rendering="crispEdges"/>
<path d="M694.499 290.405H675.674V243.028H694.499V290.405ZM677.009 289.071H693.163V244.362H677.009V289.071Z" fill="white" fill-opacity="0.5" shape-rendering="crispEdges"/>
<path d="M723.203 290.405H704.378V243.028H723.203V290.405ZM705.713 289.071H721.867V244.362H705.713V289.071Z" fill="white" fill-opacity="0.5" shape-rendering="crispEdges"/>
<path d="M751.907 290.405H733.082V243.028H751.907V290.405ZM734.417 289.071H750.571V244.362H734.417V289.071Z" fill="white" fill-opacity="0.5" shape-rendering="crispEdges"/>
<path d="M418.272 900.977H416.937V639.533L528.015 528.495V384.76L369.542 252.637H4V251.302H369.943L370.21 251.436L529.35 384.093V529.029L418.272 640.066V900.977Z" fill="white" fill-opacity="0.5" shape-rendering="crispEdges"/>
<path d="M371.812 268.518C381.766 268.518 389.835 260.452 389.835 250.501C389.835 240.551 381.766 232.484 371.812 232.484C361.858 232.484 353.789 240.551 353.789 250.501C353.789 260.452 361.858 268.518 371.812 268.518Z" fill="white" fill-opacity="0.5" shape-rendering="crispEdges"/>
<path d="M256.365 441.335C265.574 437.559 269.978 427.035 266.2 417.829C262.423 408.623 251.895 404.221 242.685 407.997C233.476 411.773 229.072 422.297 232.85 431.504C236.627 440.71 247.155 445.112 256.365 441.335Z" fill="white" fill-opacity="0.5" shape-rendering="crispEdges"/>
<path d="M480.837 440.459C485.879 437.542 487.6 431.092 484.682 426.053C481.765 421.013 475.312 419.292 470.271 422.209C465.229 425.125 463.508 431.575 466.426 436.615C469.343 441.655 475.796 443.376 480.837 440.459Z" fill="white" fill-opacity="0.5" shape-rendering="crispEdges"/>
<path d="M648.985 356.197C654.362 353.958 656.906 347.785 654.666 342.41C652.426 337.035 646.252 334.493 640.875 336.732C635.498 338.971 632.954 345.143 635.194 350.518C637.434 355.893 643.608 358.435 648.985 356.197Z" fill="white" fill-opacity="0.5" shape-rendering="crispEdges"/>
<path d="M479.027 266.772C480.361 261.104 476.846 255.428 471.176 254.094C465.506 252.761 459.828 256.275 458.494 261.943C457.16 267.611 460.676 273.287 466.346 274.62C472.016 275.953 477.693 272.44 479.027 266.772Z" fill="white" fill-opacity="0.5" shape-rendering="crispEdges"/>
<path d="M528.683 546.779C538.637 546.779 546.706 538.713 546.706 528.762C546.706 518.812 538.637 510.745 528.683 510.745C518.729 510.745 510.659 518.812 510.659 528.762C510.659 538.713 518.729 546.779 528.683 546.779Z" fill="white" fill-opacity="0.5" shape-rendering="crispEdges"/>
<path d="M249.119 425.332L129.63 284.133L130.565 283.332L249.787 423.997L334.296 423.33V92.2197H335.632V424.665L249.119 425.332Z" fill="white" fill-opacity="0.5" shape-rendering="crispEdges"/>
<path d="M248.985 468.439C224.153 468.439 203.994 448.287 203.994 423.463C203.994 398.64 224.153 378.488 248.985 378.488C273.818 378.488 293.977 398.64 293.977 423.463C293.977 448.287 273.818 468.439 248.985 468.439ZM248.985 379.823C224.954 379.823 205.329 399.441 205.329 423.463C205.329 447.486 224.954 467.104 248.985 467.104C273.017 467.104 292.642 447.486 292.642 423.463C292.642 399.441 273.017 379.823 248.985 379.823Z" fill="white" fill-opacity="0.5" shape-rendering="crispEdges"/>
<path d="M529.217 571.602C504.384 571.602 484.225 551.45 484.225 526.627C484.225 501.803 504.384 481.651 529.217 481.651C554.049 481.651 574.209 501.803 574.209 526.627C574.209 551.45 554.049 571.602 529.217 571.602ZM529.217 482.986C505.185 482.986 485.56 502.604 485.56 526.627C485.56 550.649 505.185 570.268 529.217 570.268C553.248 570.268 572.874 550.649 572.874 526.627C572.874 502.604 553.248 482.986 529.217 482.986Z" fill="white" fill-opacity="0.5" shape-rendering="crispEdges"/>
<path d="M343.909 285.067H293.71V335.247H343.909V285.067Z" fill="white" fill-opacity="0.5" shape-rendering="crispEdges"/>
<path d="M343.909 348.727H293.71V373.817H343.909V348.727Z" fill="white" fill-opacity="0.5" shape-rendering="crispEdges"/>
<path d="M404.655 374.885H353.121V323.37H404.655V374.885ZM354.456 373.55H403.32V324.704H354.456V373.55Z" fill="white" fill-opacity="0.5" shape-rendering="crispEdges"/>
<path d="M489.165 925H487.83V645.004L381.691 469.907H84.1042V468.572H382.493L382.76 468.973L489.165 644.604V925Z" fill="white" fill-opacity="0.5" shape-rendering="crispEdges"/>
<path d="M470.34 436.142V267.05L377.419 188.577V84.2122H378.754V188.043L471.675 266.383V433.873L646.169 346.058V42.7067H647.504V346.858L647.104 347.125L470.34 436.142Z" fill="white" fill-opacity="0.5" shape-rendering="crispEdges"/>
<path d="M995.957 201.122C986.612 201.122 978.869 193.515 978.869 184.039C978.869 174.564 986.478 166.956 995.957 166.956C1005.44 166.956 1013.05 174.564 1013.05 184.039C1013.05 193.515 1005.3 201.122 995.957 201.122ZM995.957 168.291C987.279 168.291 980.204 175.364 980.204 184.039C980.204 192.714 987.279 199.787 995.957 199.787C1004.64 199.787 1011.71 192.714 1011.71 184.039C1011.71 175.364 1004.64 168.291 995.957 168.291Z" fill="white" fill-opacity="0.5" shape-rendering="crispEdges"/>
<path d="M1034.67 201.122C1025.33 201.122 1017.59 193.515 1017.59 184.039C1017.59 174.564 1025.2 166.956 1034.67 166.956C1044.15 166.956 1051.76 174.564 1051.76 184.039C1051.76 193.515 1044.15 201.122 1034.67 201.122ZM1034.67 168.291C1026 168.291 1018.92 175.364 1018.92 184.039C1018.92 192.714 1026 199.787 1034.67 199.787C1043.35 199.787 1050.43 192.714 1050.43 184.039C1050.43 175.364 1043.35 168.291 1034.67 168.291Z" fill="white" fill-opacity="0.5" shape-rendering="crispEdges"/>
<path d="M1073.26 201.122C1063.91 201.122 1056.17 193.515 1056.17 184.039C1056.17 174.564 1063.78 166.956 1073.26 166.956C1082.74 166.956 1090.35 174.564 1090.35 184.039C1090.35 193.515 1082.74 201.122 1073.26 201.122ZM1073.26 168.291C1064.58 168.291 1057.5 175.364 1057.5 184.039C1057.5 192.714 1064.58 199.787 1073.26 199.787C1081.94 199.787 1089.01 192.714 1089.01 184.039C1089.01 175.364 1081.94 168.291 1073.26 168.291Z" fill="white" fill-opacity="0.5" shape-rendering="crispEdges"/>
<path d="M1112.11 201.122C1102.76 201.122 1095.02 193.515 1095.02 184.039C1095.02 174.564 1102.63 166.956 1112.11 166.956C1121.59 166.956 1129.2 174.564 1129.2 184.039C1129.2 193.515 1121.45 201.122 1112.11 201.122ZM1112.11 168.291C1103.43 168.291 1096.35 175.364 1096.35 184.039C1096.35 192.714 1103.43 199.787 1112.11 199.787C1120.79 199.787 1127.86 192.714 1127.86 184.039C1127.86 175.364 1120.79 168.291 1112.11 168.291Z" fill="white" fill-opacity="0.5" shape-rendering="crispEdges"/>
<path d="M1152.96 201.122C1143.62 201.122 1135.87 193.515 1135.87 184.039C1135.87 174.564 1143.48 166.956 1152.96 166.956C1162.44 166.956 1170.05 174.564 1170.05 184.039C1170.05 193.515 1162.31 201.122 1152.96 201.122ZM1152.96 168.291C1144.28 168.291 1137.21 175.364 1137.21 184.039C1137.21 192.714 1144.28 199.787 1152.96 199.787C1161.64 199.787 1168.72 192.714 1168.72 184.039C1168.72 175.364 1161.64 168.291 1152.96 168.291Z" fill="white" fill-opacity="0.5" shape-rendering="crispEdges"/>
<path d="M996.625 93.8212H995.29V167.624H996.625V93.8212Z" fill="white" fill-opacity="0.5" shape-rendering="crispEdges"/>
<path d="M1035.34 93.8212H1034.01V167.624H1035.34V93.8212Z" fill="white" fill-opacity="0.5" shape-rendering="crispEdges"/>
<path d="M1073.93 97.1577H1072.59V167.624H1073.93V97.1577Z" fill="white" fill-opacity="0.5" shape-rendering="crispEdges"/>
<path d="M1112.78 93.8212H1111.44V167.624H1112.78V93.8212Z" fill="white" fill-opacity="0.5" shape-rendering="crispEdges"/>
<path d="M1153.63 97.1577H1152.29V167.624H1153.63V97.1577Z" fill="white" fill-opacity="0.5" shape-rendering="crispEdges"/>
<path d="M878.738 751.104C869.393 751.104 861.649 743.497 861.649 734.021C861.649 724.546 869.259 716.938 878.738 716.938C888.217 716.938 895.827 724.546 895.827 734.021C895.827 743.497 888.217 751.104 878.738 751.104ZM878.738 718.273C870.06 718.273 862.984 725.346 862.984 734.021C862.984 742.696 870.06 749.769 878.738 749.769C887.416 749.769 894.492 742.696 894.492 734.021C894.492 725.346 887.416 718.273 878.738 718.273Z" fill="white" fill-opacity="0.5" shape-rendering="crispEdges"/>
<path d="M840.021 751.104C830.676 751.104 822.932 743.497 822.932 734.021C822.932 724.546 830.542 716.938 840.021 716.938C849.5 716.938 857.11 724.546 857.11 734.021C857.11 743.497 849.367 751.104 840.021 751.104ZM840.021 718.273C831.343 718.273 824.267 725.346 824.267 734.021C824.267 742.696 831.343 749.769 840.021 749.769C848.699 749.769 855.775 742.696 855.775 734.021C855.642 725.346 848.699 718.273 840.021 718.273Z" fill="white" fill-opacity="0.5" shape-rendering="crispEdges"/>
<path d="M801.438 751.104C792.092 751.104 784.349 743.497 784.349 734.021C784.349 724.546 791.959 716.938 801.438 716.938C810.917 716.938 818.527 724.546 818.527 734.021C818.527 743.497 810.783 751.104 801.438 751.104ZM801.438 718.273C792.76 718.273 785.684 725.346 785.684 734.021C785.684 742.696 792.76 749.769 801.438 749.769C810.116 749.769 817.191 742.696 817.191 734.021C817.191 725.346 810.116 718.273 801.438 718.273Z" fill="white" fill-opacity="0.5" shape-rendering="crispEdges"/>
<path d="M762.587 751.104C753.242 751.104 745.498 743.497 745.498 734.021C745.498 724.546 753.108 716.938 762.587 716.938C772.066 716.938 779.676 724.546 779.676 734.021C779.676 743.497 772.066 751.104 762.587 751.104ZM762.587 718.273C753.909 718.273 746.833 725.346 746.833 734.021C746.833 742.696 753.909 749.769 762.587 749.769C771.265 749.769 778.341 742.696 778.341 734.021C778.341 725.346 771.265 718.273 762.587 718.273Z" fill="white" fill-opacity="0.5" shape-rendering="crispEdges"/>
<path d="M721.734 751.104C712.388 751.104 704.645 743.497 704.645 734.021C704.645 724.546 712.255 716.938 721.734 716.938C731.213 716.938 738.823 724.546 738.823 734.021C738.823 743.497 731.213 751.104 721.734 751.104ZM721.734 718.273C713.056 718.273 705.98 725.346 705.98 734.021C705.98 742.696 713.056 749.769 721.734 749.769C730.412 749.769 737.488 742.696 737.488 734.021C737.488 725.346 730.412 718.273 721.734 718.273Z" fill="white" fill-opacity="0.5" shape-rendering="crispEdges"/>
<path d="M879.406 750.436H878.071V824.239H879.406V750.436Z" fill="white" fill-opacity="0.5" shape-rendering="crispEdges"/>
<path d="M840.689 750.436H839.354V824.239H840.689V750.436Z" fill="white" fill-opacity="0.5" shape-rendering="crispEdges"/>
<path d="M802.105 750.436H800.77V820.902H802.105V750.436Z" fill="white" fill-opacity="0.5" shape-rendering="crispEdges"/>
<path d="M763.255 750.436H761.92V824.239H763.255V750.436Z" fill="white" fill-opacity="0.5" shape-rendering="crispEdges"/>
<path d="M722.401 750.436H721.066V820.902H722.401V750.436Z" fill="white" fill-opacity="0.5" shape-rendering="crispEdges"/>
<path d="M1234.53 290.939H954.971V226.746H1234.53V290.939ZM956.306 289.605H1233.2V228.08H956.306V289.605Z" fill="white" fill-opacity="0.5" shape-rendering="crispEdges"/>
<path d="M1002.1 322.702H1211.57C1217.71 322.702 1222.52 327.64 1222.52 333.646V401.843C1222.52 407.982 1217.58 412.787 1211.57 412.787H1002.1C995.957 412.787 991.151 407.849 991.151 401.843V333.646C991.151 327.64 996.091 322.702 1002.1 322.702Z" fill="white" fill-opacity="0.5" shape-rendering="crispEdges"/>
<path d="M1213.17 427.2H997.96C985.41 427.2 975.264 417.057 975.264 404.512V328.041C975.264 315.496 985.41 305.353 997.96 305.353H1213.17C1225.72 305.353 1235.87 315.496 1235.87 328.041V404.512C1235.87 417.057 1225.72 427.2 1213.17 427.2ZM997.96 306.821C986.211 306.821 976.599 316.43 976.599 328.174V404.646C976.599 416.39 986.211 425.999 997.96 425.999H1213.17C1224.92 425.999 1234.53 416.39 1234.53 404.646V328.174C1234.53 316.43 1224.92 306.821 1213.17 306.821H997.96Z" fill="white" fill-opacity="0.5" shape-rendering="crispEdges"/>
<path d="M1175.92 763.782H1157.1V716.405H1175.92V763.782ZM1158.44 762.448H1174.59V717.739H1158.44V762.448Z" fill="white" fill-opacity="0.5" shape-rendering="crispEdges"/>
<path d="M1147.22 763.782H1128.4V716.405H1147.22V763.782ZM1129.73 762.448H1145.89V717.739H1129.73V762.448Z" fill="white" fill-opacity="0.5" shape-rendering="crispEdges"/>
<path d="M1118.52 763.782H1099.69V716.405H1118.52V763.782ZM1101.03 762.448H1117.18V717.739H1101.03V762.448Z" fill="white" fill-opacity="0.5" shape-rendering="crispEdges"/>
<path d="M1089.81 763.782H1070.99V716.405H1089.81V763.782ZM1072.32 762.448H1088.48V717.739H1072.32V762.448Z" fill="white" fill-opacity="0.5" shape-rendering="crispEdges"/>
<path d="M1061.11 763.782H1042.28V716.405H1061.11V763.782ZM1043.62 762.448H1059.77V717.739H1043.62V762.448Z" fill="white" fill-opacity="0.5" shape-rendering="crispEdges"/>
<path d="M1032.27 763.782H1013.45V716.405H1032.27V763.782ZM1014.92 762.448H1031.07V717.739H1014.92V762.448Z" fill="white" fill-opacity="0.5" shape-rendering="crispEdges"/>
<path d="M751.773 681.972H732.949V634.595H751.773V681.972ZM734.417 680.638H750.571V635.929H734.417V680.638Z" fill="white" fill-opacity="0.5" shape-rendering="crispEdges"/>
<path d="M723.069 681.972H704.245V634.595H723.069V681.972ZM705.58 680.638H721.734V635.929H705.58V680.638Z" fill="white" fill-opacity="0.5" shape-rendering="crispEdges"/>
<path d="M694.365 681.972H675.541V634.595H694.365V681.972ZM676.876 680.638H693.03V635.929H676.876V680.638Z" fill="white" fill-opacity="0.5" shape-rendering="crispEdges"/>
<path d="M665.661 681.972H646.836V634.595H665.661V681.972ZM648.172 680.638H664.326V635.929H648.172V680.638Z" fill="white" fill-opacity="0.5" shape-rendering="crispEdges"/>
<path d="M636.957 681.972H618.133V634.595H636.957V681.972ZM619.468 680.638H635.622V635.929H619.468V680.638Z" fill="white" fill-opacity="0.5" shape-rendering="crispEdges"/>
<path d="M608.253 681.972H589.428V634.595H608.253V681.972ZM590.764 680.638H606.918V635.929H590.764V680.638Z" fill="white" fill-opacity="0.5" shape-rendering="crispEdges"/>
<path d="M1336 673.698H970.057L969.79 673.564L810.65 540.907V395.971L921.728 284.934V24.0225H923.063V285.467L811.985 396.505V540.24L970.458 672.363H1336V673.698Z" fill="white" fill-opacity="0.5" shape-rendering="crispEdges"/>
<path d="M968.188 692.516C978.142 692.516 986.211 684.449 986.211 674.499C986.211 664.548 978.142 656.482 968.188 656.482C958.234 656.482 950.165 664.548 950.165 674.499C950.165 684.449 958.234 692.516 968.188 692.516Z" fill="white" fill-opacity="0.5" shape-rendering="crispEdges"/>
<path d="M1090.48 518.486C1100.43 518.486 1108.5 510.419 1108.5 500.469C1108.5 490.518 1100.43 482.452 1090.48 482.452C1080.53 482.452 1072.46 490.518 1072.46 500.469C1072.46 510.419 1080.53 518.486 1090.48 518.486Z" fill="white" fill-opacity="0.5" shape-rendering="crispEdges"/>
<path d="M874.853 495.408C875.786 489.66 871.881 484.244 866.131 483.312C860.381 482.379 854.964 486.282 854.031 492.03C853.097 497.778 857.002 503.193 862.752 504.126C868.502 505.059 873.919 501.156 874.853 495.408Z" fill="white" fill-opacity="0.5" shape-rendering="crispEdges"/>
<path d="M684.486 578.542C684.486 572.67 689.292 567.999 695.033 567.999C700.907 567.999 705.58 572.803 705.58 578.542C705.58 584.414 700.773 589.085 695.033 589.085C689.292 589.085 684.486 584.414 684.486 578.542Z" fill="white" fill-opacity="0.5" shape-rendering="crispEdges"/>
<path d="M881.659 662.371C882.592 656.623 878.687 651.207 872.937 650.274C867.187 649.341 861.77 653.245 860.836 658.992C859.903 664.74 863.808 670.156 869.558 671.089C875.308 672.021 880.725 668.118 881.659 662.371Z" fill="white" fill-opacity="0.5" shape-rendering="crispEdges"/>
<path d="M829.028 399.394C830.756 389.594 824.21 380.25 814.408 378.523C804.605 376.795 795.257 383.339 793.529 393.138C791.801 402.937 798.347 412.282 808.15 414.009C817.953 415.736 827.3 409.193 829.028 399.394Z" fill="white" fill-opacity="0.5" shape-rendering="crispEdges"/>
<path d="M1005.7 832.78H1004.37V500.335L1090.88 499.802L1091.01 499.935L1210.37 640.867L1209.44 641.668L1090.21 501.136L1005.7 501.67V832.78Z" fill="white" fill-opacity="0.5" shape-rendering="crispEdges"/>
<path d="M1091.01 546.512C1066.18 546.512 1046.02 526.36 1046.02 501.537C1046.02 476.713 1066.18 456.561 1091.01 456.561C1115.85 456.561 1136.01 476.713 1136.01 501.537C1136.01 526.36 1115.85 546.512 1091.01 546.512ZM1091.01 457.896C1066.98 457.896 1047.36 477.514 1047.36 501.537C1047.36 525.559 1066.98 545.177 1091.01 545.177C1115.05 545.177 1134.67 525.559 1134.67 501.537C1134.67 477.514 1115.05 457.896 1091.01 457.896Z" fill="white" fill-opacity="0.5" shape-rendering="crispEdges"/>
<path d="M810.783 443.349C785.951 443.349 765.791 423.197 765.791 398.373C765.791 373.55 785.951 353.398 810.783 353.398C835.615 353.398 855.775 373.55 855.775 398.373C855.775 423.197 835.615 443.349 810.783 443.349ZM810.783 354.732C786.752 354.732 767.126 374.351 767.126 398.373C767.126 422.396 786.752 442.014 810.783 442.014C834.814 442.014 854.44 422.396 854.44 398.373C854.44 374.351 834.814 354.732 810.783 354.732Z" fill="white" fill-opacity="0.5" shape-rendering="crispEdges"/>
<path d="M996.188 640H1046.39V589.82H996.188V640Z" fill="white" fill-opacity="0.5" shape-rendering="crispEdges"/>
<path d="M996.188 576.214H1046.39V551.124H996.188V576.214Z" fill="white" fill-opacity="0.5" shape-rendering="crispEdges"/>
<path d="M986.879 601.63H935.345V550.115H986.879V601.63ZM936.68 600.296H985.544V551.45H936.68V600.296Z" fill="white" fill-opacity="0.5" shape-rendering="crispEdges"/>
<path d="M1255.9 456.428H957.507L957.24 456.027L850.835 280.396V0H852.17V279.996L958.175 455.093H1255.9V456.428Z" fill="white" fill-opacity="0.5" shape-rendering="crispEdges"/>
<path d="M693.831 882.293H692.496V578.142L692.896 577.875L869.66 488.991V658.083L962.581 736.423V840.788H961.246V737.091L868.325 658.617V491.127L693.831 578.942V882.293Z" fill="white" fill-opacity="0.5" shape-rendering="crispEdges"/>
<path d="M729.744 496.599V428.668L670.868 394.636L612.125 428.668V496.599L670.868 530.497L729.744 496.599Z" fill="white" fill-opacity="0.5" shape-rendering="crispEdges"/>
<path d="M670.868 555.454L670.601 555.32L590.497 509.01V416.123L671.001 369.68L671.268 369.813L751.372 416.123V509.01L670.868 555.454ZM591.832 508.209L671.001 553.852L750.171 508.209V416.79L671.001 371.148L591.832 416.79V508.209Z" fill="white" fill-opacity="0.5" shape-rendering="crispEdges"/>
<path d="M829.341 159.883H793.16V196.05H829.341V159.883Z" fill="white" fill-opacity="0.5" shape-rendering="crispEdges"/>
<path d="M829.207 207.261H793.16V220.073H829.207V207.261Z" fill="white" fill-opacity="0.5" shape-rendering="crispEdges"/>
<path d="M539.764 684.908H503.583V721.076H539.764V684.908Z" fill="white" fill-opacity="0.5" shape-rendering="crispEdges"/>
<path d="M539.63 732.42H503.583V745.232H539.63V732.42Z" fill="white" fill-opacity="0.5" shape-rendering="crispEdges"/>
</g>
<defs>
<filter id="filter0_d_2_232" x="0" y="0" width="1340" height="933" filterUnits="userSpaceOnUse" color-interpolation-filters="sRGB">
<feFlood flood-opacity="0" result="BackgroundImageFix"/>
<feColorMatrix in="SourceAlpha" type="matrix" values="0 0 0 0 0 0 0 0 0 0 0 0 0 0 0 0 0 0 127 0" result="hardAlpha"/>
<feOffset dy="4"/>
<feGaussianBlur stdDeviation="2"/>
<feComposite in2="hardAlpha" operator="out"/>
<feColorMatrix type="matrix" values="0 0 0 0 0 0 0 0 0 0 0 0 0 0 0 0 0 0 0.25 0"/>
<feBlend mode="normal" in2="BackgroundImageFix" result="effect1_dropShadow_2_232"/>
<feBlend mode="normal" in="SourceGraphic" in2="effect1_dropShadow_2_232" result="shape"/>
</filter>
</defs>
</svg>
