<svg width="121" height="120" viewBox="0 0 121 120" fill="none" xmlns="http://www.w3.org/2000/svg">
<g id="Enlist">
<g id="Vector">
<path d="M93.4883 120H27.5117C12.5937 120 0.5 107.906 0.5 92.9883V27.0117C0.5 12.0937 12.5937 0 27.5117 0H93.4883C108.406 0 120.5 12.0937 120.5 27.0117V92.9883C120.5 107.906 108.406 120 93.4883 120Z" fill="url(#paint0_linear_1_33)"/>
<path d="M70.8594 76.2188C69.3594 76.2188 67.8594 75.6445 66.7109 74.5078L56.3516 64.1484C54.0664 61.8633 54.0664 58.1484 56.3516 55.8633C58.6367 53.5781 62.3516 53.5781 64.6367 55.8633L74.9961 66.2227C77.2813 68.5078 77.2813 72.2227 74.9961 74.5078C73.8594 75.6445 72.3594 76.2188 70.8594 76.2188Z" fill="white"/>
<path d="M60.5 106.875C54.1719 106.875 48.0312 105.633 42.2539 103.184C36.6758 100.828 31.6602 97.4414 27.3594 93.1406C23.0586 88.8398 19.6719 83.8242 17.3164 78.2461C14.8672 72.4688 13.625 66.3281 13.625 60C13.625 53.6719 14.8672 47.5312 17.3164 41.7539C19.6719 36.1758 23.0586 31.1602 27.3594 26.8594C31.6602 22.5586 36.6758 19.1719 42.2539 16.8164C48.0312 14.3672 54.1719 13.125 60.5 13.125C66.8281 13.125 72.9688 14.3672 78.7461 16.8164C84.3242 19.1719 89.3398 22.5586 93.6406 26.8594C97.9414 31.1602 101.328 36.1758 103.684 41.7539C106.133 47.5312 107.375 53.6719 107.375 60C107.375 66.3281 106.133 72.4688 103.684 78.2461C101.328 83.8242 97.9414 88.8398 93.6406 93.1406C89.3398 97.4414 84.3242 100.828 78.7461 103.184C72.9688 105.633 66.8281 106.875 60.5 106.875ZM60.5 24.8438C51.1133 24.8438 42.2773 28.5 35.6445 35.1445C29 41.7773 25.3438 50.6133 25.3438 60C25.3438 69.3867 29 78.2227 35.6445 84.8555C42.2891 91.5 51.1133 95.1562 60.5 95.1562C69.8867 95.1562 78.7227 91.5 85.3555 84.8555C92 78.2109 95.6562 69.3867 95.6562 60C95.6562 50.6133 92 41.7773 85.3555 35.1445C78.7227 28.5 69.8867 24.8438 60.5 24.8438Z" fill="white"/>
<path d="M60.5 106.875C54.418 106.875 48.4766 105.715 42.8633 103.441C37.0391 101.086 31.8242 97.6172 27.3594 93.1406C22.8945 88.6641 19.4258 83.4492 17.0586 77.6367C14.7852 72.0234 13.625 66.082 13.625 60C13.625 53.918 14.7852 47.9766 17.0586 42.3633C19.4141 36.5391 22.8828 31.3242 27.3594 26.8594C31.8359 22.3945 37.0508 18.9258 42.8633 16.5586C48.4766 14.2852 54.418 13.125 60.5 13.125C66.582 13.125 72.5234 14.2852 78.1367 16.5586C83.9609 18.9141 89.1758 22.3828 93.6406 26.8594C95.9258 29.1445 95.9258 32.8594 93.6406 35.1445C91.3555 37.4297 87.6406 37.4297 85.3555 35.1445C78.7227 28.5 69.8867 24.8438 60.5 24.8438C51.1133 24.8438 42.2773 28.5 35.6445 35.1445C29.0117 41.7891 25.3438 50.6133 25.3438 60C25.3438 69.3867 29 78.2227 35.6445 84.8555C42.2891 91.5 51.1133 95.1562 60.5 95.1562C69.8867 95.1562 78.7227 91.5 85.3555 84.8555C93.0195 77.1914 96.6875 66.6094 95.4102 55.8398C95.0352 52.6289 97.332 49.7109 100.543 49.3359C103.754 48.9492 106.672 51.2578 107.047 54.4688C107.867 61.3477 107.129 68.4492 104.914 75.0117C102.594 81.8906 98.8086 87.9961 93.6406 93.1641C89.1641 97.6406 83.9492 101.098 78.1367 103.465C72.5234 105.715 66.582 106.875 60.5 106.875Z" fill="#00FF32"/>
<path d="M60.5 65.8594C59 65.8594 57.5 65.2852 56.3516 64.1484L46.0039 53.7891C43.7188 51.5039 43.7188 47.7891 46.0039 45.5039C48.2891 43.2188 52.0039 43.2188 54.2891 45.5039L60.5 51.7148L85.3555 26.8594C87.6406 24.5742 91.3555 24.5742 93.6406 26.8594C95.9258 29.1445 95.9258 32.8594 93.6406 35.1445L64.6484 64.1484C63.5 65.2852 62 65.8594 60.5 65.8594Z" fill="#00FF32"/>
</g>
</g>
<defs>
<linearGradient id="paint0_linear_1_33" x1="112.588" y1="112.088" x2="8.41149" y2="7.91149" gradientUnits="userSpaceOnUse">
<stop/>
<stop offset="1" stop-color="#282828"/>
</linearGradient>
</defs>
</svg>
