<svg width="80" height="40" viewBox="0 0 80 40" fill="none" xmlns="http://www.w3.org/2000/svg">
<path fill-rule="evenodd" clip-rule="evenodd" d="M20 0C17.2386 0 15 2.23858 15 5C15 7.76142 17.2386 10 20 10H60C62.7614 10 65 7.76142 65 5C65 2.23858 62.7614 0 60 0H20ZM0 20C0 17.2386 1.79086 15 4 15H76C78.2091 15 80 17.2386 80 20C80 22.7614 78.2091 25 76 25H4C1.79086 25 0 22.7614 0 20ZM15 35C15 32.2386 17.2386 30 20 30H60C62.7614 30 65 32.2386 65 35C65 37.7614 62.7614 40 60 40H20C17.2386 40 15 37.7614 15 35Z" fill="white"/>
</svg>
