<svg width="1071" height="240" viewBox="0 0 1071 240" fill="none" xmlns="http://www.w3.org/2000/svg">
<path d="M299.722 158.486V222.018H256.904V158.486C256.904 123.357 228.359 94.9545 193.054 94.9545C206.575 112.893 214.087 134.568 214.087 158.486V222.018H171.27V158.486C171.27 139.8 163.007 122.609 150.236 110.651C138.969 100.186 123.945 94.207 107.419 94.207C72.1135 94.207 43.5686 122.609 43.5686 157.739V221.27H0V158.486C0 99.4391 48.0757 51.6035 106.668 51.6035C121.692 51.6035 136.715 54.5932 149.485 60.5727C163.007 54.5932 177.279 51.6035 192.303 51.6035C251.646 51.6035 299.722 99.4391 299.722 158.486ZM642.261 72.5316V222.018H685.078V72.5316C670.806 75.5213 656.534 75.5213 642.261 72.5316ZM642.261 9V50.8561C656.534 54.5932 670.806 54.5932 685.078 50.8561V9H642.261ZM984.8 51.6035C937.476 51.6035 899.165 89.7225 899.165 136.811V222.018H941.983V136.811C941.983 113.64 961.514 94.207 984.8 94.207C1008.09 94.207 1027.62 113.64 1027.62 136.811V222.018H1070.44V136.811C1070.44 89.7225 1032.12 51.6035 984.8 51.6035ZM879.635 139.053C879.635 187.636 840.573 226.502 791.746 226.502C742.919 226.502 703.858 187.636 703.858 139.053C703.858 90.4699 743.671 51.6035 791.746 51.6035C840.573 51.6035 879.635 90.4699 879.635 139.053ZM836.817 139.053C836.817 114.388 816.535 94.207 791.746 94.207C766.957 94.207 746.675 114.388 746.675 139.053C746.675 163.718 766.957 183.899 791.746 183.899C816.535 183.899 836.817 163.718 836.817 139.053ZM556.626 9H513.809C513.809 68.047 561.885 115.135 620.477 115.135V72.5316C585.171 72.5316 556.626 44.1292 556.626 9ZM106.668 104.671C104.414 104.671 101.41 104.671 99.1561 105.418C90.1419 121.115 84.8836 139.053 84.8836 158.486V222.018H127.701V158.486C127.701 143.537 132.959 129.336 141.973 118.872C132.959 109.903 120.94 104.671 106.668 104.671ZM571.65 173.435C561.885 165.213 556.626 153.254 556.626 140.548V106.913C547.612 100.934 540.1 94.207 533.34 86.7327C525.828 77.7636 519.067 68.047 513.809 57.583V140.548C513.809 165.213 524.325 189.131 544.607 205.574C548.363 208.564 552.87 211.554 556.626 213.796C576.157 225.007 599.444 227.997 620.477 222.765V177.172C605.453 186.888 585.922 185.394 571.65 173.435ZM367.328 177.919C348.549 159.233 332.774 140.548 320.755 121.862C315.497 149.517 323.76 178.667 344.793 200.342C366.577 222.018 395.873 229.492 423.667 224.26C404.887 212.301 386.108 196.605 367.328 177.919ZM489.02 168.203C500.288 137.558 492.776 101.681 468.738 77.0162C443.949 52.351 407.892 45.6241 377.094 56.8355C371.084 59.0778 365.826 61.3201 360.568 64.3098C363.572 72.5316 371.084 85.9853 383.103 100.186C400.38 89.7225 422.916 91.9648 437.939 106.913C452.963 121.862 455.217 144.285 444.7 161.476C459.724 173.435 472.494 180.909 480.757 183.899C484.513 179.414 487.517 174.182 489.02 168.203Z" fill="white"/>
<path d="M299.588 149.083V212.954H256.854V149.083C256.854 113.766 228.164 85.2115 192.678 85.2115C206.118 102.945 214.121 125.187 214.121 149.083V212.954H171.387V149.083C171.387 130.147 163.082 113.165 149.945 101.442C138.62 91.3732 123.52 85.2115 107.06 85.2115C71.5749 85.2115 42.8845 113.766 42.8845 149.083V212.954H0V149.083C0 90.3212 47.8676 42.5306 107.06 42.5306C122.312 42.5306 136.808 45.6866 149.945 51.3974C163.082 45.6866 177.578 42.5306 192.678 42.5306C251.72 42.5306 299.588 90.3212 299.588 149.083ZM642.06 63.8711V212.954H684.794V63.8711C670.75 66.7265 656.103 66.7265 642.06 63.8711ZM642.06 0V42.0798C656.103 45.6866 670.901 45.6866 684.794 42.0798V0H642.06ZM984.533 42.5306C937.269 42.5306 898.914 80.703 898.914 127.742V212.954H941.648V127.742C941.648 104.147 960.825 85.0612 984.533 85.0612C1008.09 85.0612 1027.27 104.147 1027.27 127.742V212.954H1070V127.742C1070.15 80.703 1031.8 42.5306 984.533 42.5306ZM879.586 129.996C879.586 178.238 840.326 217.312 791.854 217.312C743.382 217.312 704.122 178.238 704.122 129.996C704.122 81.755 743.382 42.6809 791.854 42.6809C840.326 42.5306 879.586 81.755 879.586 129.996ZM836.853 129.996C836.853 105.35 816.769 85.2115 791.854 85.2115C766.939 85.2115 747.006 105.199 747.006 129.996C747.006 154.643 767.09 174.781 792.005 174.781C816.92 174.781 836.853 154.643 836.853 129.996ZM556.442 0H513.709C513.709 58.7614 561.576 106.552 620.769 106.552V63.8711C585.132 63.8711 556.442 35.3169 556.442 0ZM107.06 95.8817C104.493 95.8817 102.077 96.032 99.6613 96.3326C90.7522 111.962 85.6181 129.846 85.6181 149.083V212.954H128.352V149.083C128.352 134.054 133.637 120.078 142.395 109.257C133.033 100.841 120.651 95.8817 107.06 95.8817ZM571.693 164.712C561.576 156.296 556.442 144.123 556.442 132.1V98.136C547.684 92.4252 539.832 85.8127 533.037 78.1481C525.185 69.4316 518.692 59.6631 513.709 48.8426V131.95C513.709 156.296 524.128 180.342 544.211 197.174C548.137 200.48 552.214 203.335 556.442 205.74C576.223 217.162 599.327 219.867 620.618 214.456V168.92C605.518 177.637 585.887 176.585 571.693 164.712ZM367.237 169.07C348.512 150.435 332.657 131.349 320.426 113.165C315.141 140.667 323.144 170.273 344.586 191.613C366.029 212.954 395.776 220.919 423.409 215.659C405.138 203.486 385.961 187.706 367.237 169.07ZM489.246 159.302C500.269 128.494 493.323 92.8761 468.559 68.2293C443.946 43.5826 408.007 36.6695 377.203 47.6403C371.616 49.594 366.18 52.1489 360.895 55.4551C363.613 64.0214 371.767 76.9458 383.545 91.6738C400.759 81.3041 423.56 83.5584 438.51 98.4366C453.459 113.315 455.724 136.008 445.305 153.14C460.103 164.863 472.938 172.828 481.696 175.683C484.716 170.273 487.283 164.863 489.246 159.302Z" fill="url(#paint0_linear_16_15)"/>
<path d="M512.5 235.346C494.984 252.779 433.224 219.716 374.787 161.556C316.349 103.396 283.129 41.9295 300.645 24.4964C311.064 14.1268 336.885 21.4907 368.294 41.3283C359.989 38.1724 353.797 37.8718 350.626 41.0278C340.66 50.9466 364.972 91.5235 405.138 131.349C445.305 171.174 485.924 195.521 495.89 185.602C499.061 182.446 498.759 176.284 495.588 168.018C515.521 199.278 522.92 224.976 512.5 235.346ZM791.854 108.656C780.076 108.656 770.412 118.124 770.412 129.996C770.412 141.869 779.925 151.337 791.854 151.337C803.632 151.337 813.296 141.869 813.296 129.996C813.296 118.124 803.632 108.656 791.854 108.656Z" fill="url(#paint1_linear_16_15)"/>
<defs>
<linearGradient id="paint0_linear_16_15" x1="535.045" y1="239.945" x2="535.045" y2="0" gradientUnits="userSpaceOnUse">
<stop stop-color="#0047BB"/>
<stop offset="0.8" stop-color="#01BEDB"/>
</linearGradient>
<linearGradient id="paint1_linear_16_15" x1="702.368" y1="249.12" x2="390.179" y2="-64.5591" gradientUnits="userSpaceOnUse">
<stop offset="0.3" stop-color="#C6007E"/>
<stop offset="1" stop-color="#D4409E"/>
</linearGradient>
</defs>
</svg>
