<svg width="1071" height="240" viewBox="0 0 1071 240" fill="none" xmlns="http://www.w3.org/2000/svg">
<path d="M512.306 235.441C495.029 252.632 433.432 219.745 374.84 161.445C316.248 103.146 283.196 41.8563 300.473 24.6654C310.989 14.2014 336.53 21.6757 368.079 41.1088C359.816 38.1191 353.807 37.3717 350.051 41.1088C340.286 50.8254 364.323 91.1867 404.136 131.548C443.949 171.162 484.513 195.827 495.029 185.363C498.034 182.373 498.034 175.646 495.029 167.425C515.311 199.564 522.823 224.977 512.306 235.441ZM791.746 108.378C779.727 108.378 770.713 118.094 770.713 129.306C770.713 141.264 780.479 150.234 791.746 150.234C803.765 150.234 812.779 140.517 812.779 129.306C813.531 118.094 803.765 108.378 791.746 108.378Z" fill="url(#paint0_linear_16_3)"/>
<path d="M299.722 149.486V213.018H256.904V149.486C256.904 114.357 228.359 85.9545 193.054 85.9545C206.575 103.893 214.087 125.568 214.087 149.486V213.018H171.27V149.486C171.27 130.8 163.007 113.609 150.236 101.651C138.969 91.1865 123.945 85.207 107.419 85.207C72.1135 85.207 43.5686 113.609 43.5686 148.739V212.27H0V149.486C0 90.4391 48.0757 42.6035 106.668 42.6035C121.692 42.6035 136.715 45.5932 149.485 51.5727C163.007 45.5932 177.279 42.6035 192.303 42.6035C251.646 42.6035 299.722 90.4391 299.722 149.486ZM642.261 63.5316V213.018H685.078V63.5316C670.806 66.5213 656.534 66.5213 642.261 63.5316ZM642.261 0V41.8561C656.534 45.5932 670.806 45.5932 685.078 41.8561V0H642.261ZM984.8 42.6035C937.476 42.6035 899.165 80.7225 899.165 127.811V213.018H941.983V127.811C941.983 104.64 961.514 85.207 984.8 85.207C1008.09 85.207 1027.62 104.64 1027.62 127.811V213.018H1070.44V127.811C1070.44 80.7225 1032.12 42.6035 984.8 42.6035ZM879.635 130.053C879.635 178.636 840.573 217.502 791.746 217.502C742.919 217.502 703.858 178.636 703.858 130.053C703.858 81.4699 743.671 42.6035 791.746 42.6035C840.573 42.6035 879.635 81.4699 879.635 130.053ZM836.817 130.053C836.817 105.388 816.535 85.207 791.746 85.207C766.957 85.207 746.675 105.388 746.675 130.053C746.675 154.718 766.957 174.899 791.746 174.899C816.535 174.899 836.817 154.718 836.817 130.053ZM556.626 0H513.809C513.809 59.047 561.885 106.135 620.477 106.135V63.5316C585.171 63.5316 556.626 35.1292 556.626 0ZM106.668 95.6711C104.414 95.6711 101.41 95.6711 99.1561 96.4185C90.1419 112.115 84.8836 130.053 84.8836 149.486V213.018H127.701V149.486C127.701 134.537 132.959 120.336 141.973 109.872C132.959 100.903 120.94 95.6711 106.668 95.6711ZM571.65 164.435C561.885 156.213 556.626 144.254 556.626 131.548V97.9134C547.612 91.9339 540.1 85.207 533.34 77.7327C525.828 68.7636 519.067 59.047 513.809 48.583V131.548C513.809 156.213 524.325 180.131 544.607 196.574C548.363 199.564 552.87 202.554 556.626 204.796C576.157 216.007 599.444 218.997 620.477 213.765V168.172C605.453 177.888 585.922 176.394 571.65 164.435ZM367.328 168.919C348.549 150.233 332.774 131.548 320.755 112.862C315.497 140.517 323.76 169.667 344.793 191.342C366.577 213.018 395.873 220.492 423.667 215.26C404.887 203.301 386.108 187.605 367.328 168.919ZM489.02 159.203C500.288 128.558 492.776 92.6814 468.738 68.0162C443.949 43.351 407.892 36.6241 377.094 47.8355C371.084 50.0778 365.826 52.3201 360.568 55.3098C363.572 63.5316 371.084 76.9853 383.103 91.1865C400.38 80.7225 422.916 82.9648 437.939 97.9134C452.963 112.862 455.217 135.285 444.7 152.476C459.724 164.435 472.494 171.909 480.757 174.899C484.513 170.414 487.517 165.182 489.02 159.203Z" fill="white"/>
<defs>
<linearGradient id="paint0_linear_16_3" x1="702.395" y1="248.983" x2="390.32" y2="-64.6592" gradientUnits="userSpaceOnUse">
<stop offset="0.3" stop-color="#CC007E"/>
<stop offset="1" stop-color="#D9409E"/>
</linearGradient>
</defs>
</svg>
