<svg width="60" height="60" viewBox="0 0 60 60" fill="none" xmlns="http://www.w3.org/2000/svg">
<path d="M58.428 39.6C54.414 51.45 43.188 60 30 60C22.434 60 15.516 57.18 10.23 52.542C7.806 50.418 5.73 47.91 4.092 45.108L0 49.2V30H19.2L9.408 39.792C10.824 42.744 12.852 45.354 15.33 47.442C19.296 50.784 24.414 52.8 30 52.8C39.144 52.8 47.046 47.388 50.682 39.6H58.428Z" fill="white"/>
<path d="M60 10.8V30H40.8L50.592 20.208C49.176 17.256 47.148 14.646 44.67 12.558C40.704 9.216 35.586 7.2 30 7.2C20.856 7.2 12.954 12.612 9.318 20.4H1.572C5.586 8.55 16.812 0 30 0C37.566 0 44.484 2.82 49.77 7.458C52.194 9.582 54.27 12.09 55.908 14.892L60 10.8Z" fill="white"/>
</svg>
